<svg id="visual" viewBox="0 0 960 540" width="960" height="540" xmlns="http://www.w3.org/2000/svg" xmlns:xlink="http://www.w3.org/1999/xlink" version="1.1"><rect x="0" y="0" width="960" height="540" fill="#f9f9f9"></rect><defs><linearGradient id="grad1_0" x1="43.8%" y1="0%" x2="100%" y2="100%"><stop offset="14.444444444444446%" stop-color="#5c74a5" stop-opacity="1"></stop><stop offset="85.55555555555554%" stop-color="#5c74a5" stop-opacity="1"></stop></linearGradient></defs><defs><linearGradient id="grad1_1" x1="43.8%" y1="0%" x2="100%" y2="100%"><stop offset="14.444444444444446%" stop-color="#5c74a5" stop-opacity="1"></stop><stop offset="85.55555555555554%" stop-color="#abb4cf" stop-opacity="1"></stop></linearGradient></defs><defs><linearGradient id="grad1_2" x1="43.8%" y1="0%" x2="100%" y2="100%"><stop offset="14.444444444444446%" stop-color="#f9f9f9" stop-opacity="1"></stop><stop offset="85.55555555555554%" stop-color="#abb4cf" stop-opacity="1"></stop></linearGradient></defs><defs><linearGradient id="grad2_0" x1="0%" y1="0%" x2="56.3%" y2="100%"><stop offset="14.444444444444446%" stop-color="#5c74a5" stop-opacity="1"></stop><stop offset="85.55555555555554%" stop-color="#5c74a5" stop-opacity="1"></stop></linearGradient></defs><defs><linearGradient id="grad2_1" x1="0%" y1="0%" x2="56.3%" y2="100%"><stop offset="14.444444444444446%" stop-color="#abb4cf" stop-opacity="1"></stop><stop offset="85.55555555555554%" stop-color="#5c74a5" stop-opacity="1"></stop></linearGradient></defs><defs><linearGradient id="grad2_2" x1="0%" y1="0%" x2="56.3%" y2="100%"><stop offset="14.444444444444446%" stop-color="#abb4cf" stop-opacity="1"></stop><stop offset="85.55555555555554%" stop-color="#f9f9f9" stop-opacity="1"></stop></linearGradient></defs><g transform="translate(960, 0)"><path d="M0 351C-55.8 332.7 -111.6 314.5 -166 287.5C-220.4 260.6 -273.4 224.9 -304 175.5C-334.6 126.1 -342.8 63.1 -351 0L0 0Z" fill="#d2d6e4"></path><path d="M0 234C-37.2 221.8 -74.4 209.7 -110.7 191.7C-146.9 173.7 -182.3 149.9 -202.6 117C-223 84.1 -228.5 42 -234 0L0 0Z" fill="#8493ba"></path><path d="M0 117C-18.6 110.9 -37.2 104.8 -55.3 95.8C-73.5 86.9 -91.1 75 -101.3 58.5C-111.5 42 -114.3 21 -117 0L0 0Z" fill="#5c74a5"></path></g><g transform="translate(0, 540)"><path d="M0 -351C59.3 -338.7 118.5 -326.5 172.5 -298.8C226.5 -271.1 275.1 -227.9 304 -175.5C332.8 -123.1 341.9 -61.6 351 0L0 0Z" fill="#d2d6e4"></path><path d="M0 -234C39.5 -225.8 79 -217.7 115 -199.2C151 -180.7 183.4 -151.9 202.6 -117C221.9 -82.1 227.9 -41 234 0L0 0Z" fill="#8493ba"></path><path d="M0 -117C19.8 -112.9 39.5 -108.8 57.5 -99.6C75.5 -90.4 91.7 -76 101.3 -58.5C110.9 -41 114 -20.5 117 0L0 0Z" fill="#5c74a5"></path></g></svg>